<svg width="27" height="22" viewBox="0 0 27 22" fill="none" xmlns="http://www.w3.org/2000/svg">
<g clip-path="url(#clip0_151_5)">
<path d="M1.63687 0.215149C1.19812 -0.130788 0.561087 -0.050632 0.215149 0.388118C-0.130788 0.826868 -0.050632 1.4639 0.388118 1.80984L25.3631 21.3848C25.8019 21.7308 26.4389 21.6506 26.7848 21.2119C27.1308 20.7731 27.0506 20.1361 26.6119 19.7901L22.1737 16.3139C23.8444 14.6011 24.975 12.6816 25.5445 11.3189C25.6837 10.9856 25.6837 10.6144 25.5445 10.2811C24.9159 8.77499 23.5955 6.58124 21.6211 4.75031C19.6383 2.90249 16.9087 1.34999 13.5 1.34999C10.6228 1.34999 8.22655 2.45952 6.35765 3.91499L1.63687 0.215149ZM8.00718 5.20593C9.53437 4.12171 11.3695 3.37499 13.5 3.37499C16.2506 3.37499 18.5119 4.62374 20.2458 6.23109C21.87 7.7414 22.9922 9.53437 23.5659 10.8C23.0344 11.9812 22.0219 13.6181 20.5748 15.0567L18.3051 13.2764C18.6891 12.5339 18.9042 11.6944 18.9042 10.8C18.9042 7.81734 16.4869 5.39999 13.5042 5.39999C12.1458 5.39999 10.9012 5.90202 9.95202 6.7289L8.00718 5.20593ZM16.6598 11.9897L13.2216 9.2939C13.3987 8.93531 13.5 8.52609 13.5 8.09999C13.5 7.86796 13.4705 7.64015 13.4156 7.42499C13.4451 7.42499 13.4705 7.42499 13.5 7.42499C15.3647 7.42499 16.875 8.93531 16.875 10.8C16.875 11.2176 16.7991 11.6184 16.6598 11.9897ZM17.0564 17.4867C15.9806 17.9466 14.7951 18.225 13.5 18.225C10.7494 18.225 8.48812 16.9762 6.75421 15.3689C5.12999 13.8586 4.00781 12.0656 3.43406 10.8C3.78421 10.0237 4.34109 9.04921 5.09624 8.06624L3.50577 6.81327C2.5439 8.06624 1.85624 9.31499 1.45546 10.2811C1.31624 10.6144 1.31624 10.9856 1.45546 11.3189C2.08406 12.825 3.40452 15.0187 5.3789 16.8497C7.36171 18.6975 10.0912 20.25 13.5 20.25C15.5166 20.25 17.2926 19.7058 18.8241 18.8789L17.0564 17.4867ZM8.09999 10.8C8.09999 13.7826 10.5173 16.2 13.5 16.2C14.0611 16.2 14.6011 16.1156 15.1116 15.9553L12.7406 14.0906C11.7492 13.8628 10.9223 13.1962 10.4751 12.3061L8.10843 10.4414C8.09999 10.5595 8.09577 10.6776 8.09577 10.8H8.09999Z" fill="#81B29A" fill-opacity="0.41"/>
</g>
<defs>
<clipPath id="clip0_151_5">
<rect width="27" height="21.6" fill="white"/>
</clipPath>
</defs>
</svg>
