<svg width="29" height="34" viewBox="0 0 29 34" fill="none" xmlns="http://www.w3.org/2000/svg">
<g clip-path="url(#clip0_114_22)">
<path d="M19.6786 8.28571C19.6786 6.91227 19.133 5.59508 18.1618 4.62391C17.1906 3.65274 15.8734 3.10714 14.5 3.10714C13.1266 3.10714 11.8094 3.65274 10.8382 4.62391C9.86703 5.59508 9.32143 6.91227 9.32143 8.28571C9.32143 9.65916 9.86703 10.9763 10.8382 11.9475C11.8094 12.9187 13.1266 13.4643 14.5 13.4643C15.8734 13.4643 17.1906 12.9187 18.1618 11.9475C19.133 10.9763 19.6786 9.65916 19.6786 8.28571ZM6.21429 8.28571C6.21429 6.08821 7.08724 3.9807 8.64111 2.42683C10.195 0.872957 12.3025 0 14.5 0C16.6975 0 18.805 0.872957 20.3589 2.42683C21.9128 3.9807 22.7857 6.08821 22.7857 8.28571C22.7857 10.4832 21.9128 12.5907 20.3589 14.1446C18.805 15.6985 16.6975 16.5714 14.5 16.5714C12.3025 16.5714 10.195 15.6985 8.64111 14.1446C7.08724 12.5907 6.21429 10.4832 6.21429 8.28571ZM3.19129 30.0357H25.8152C25.2391 25.9382 21.7176 22.7857 17.4647 22.7857H11.5482C7.29531 22.7857 3.77388 25.9382 3.19777 30.0357H3.19129ZM0 31.2203C0 24.8442 5.16563 19.6786 11.5417 19.6786H17.4583C23.8344 19.6786 29 24.8442 29 31.2203C29 32.2819 28.1391 33.1429 27.0775 33.1429H1.92254C0.860938 33.1429 0 32.2819 0 31.2203Z" fill="#81B29A" fill-opacity="0.41"/>
</g>
<defs>
<clipPath id="clip0_114_22">
<rect width="29" height="33.1429" fill="white"/>
</clipPath>
</defs>
</svg>
