<svg width="27" height="24" viewBox="0 0 27 24" fill="none" xmlns="http://www.w3.org/2000/svg">
<g clip-path="url(#clip0_150_2)">
<path d="M13.5 3.75C10.4438 3.75 7.9313 5.1375 6.00474 6.92344C4.20005 8.60156 2.95317 10.5937 2.31567 12C2.95317 13.4062 4.20005 15.3984 6.00005 17.0766C7.9313 18.8625 10.4438 20.25 13.5 20.25C16.5563 20.25 19.0688 18.8625 20.9954 17.0766C22.8 15.3984 24.0469 13.4062 24.6844 12C24.0469 10.5937 22.8 8.60156 21 6.92344C19.0688 5.1375 16.5563 3.75 13.5 3.75ZM4.47192 5.27812C6.67974 3.225 9.71255 1.5 13.5 1.5C17.2875 1.5 20.3204 3.225 22.5282 5.27812C24.7219 7.31719 26.1891 9.75 26.8875 11.4234C27.0422 11.7937 27.0422 12.2062 26.8875 12.5766C26.1891 14.25 24.7219 16.6875 22.5282 18.7219C20.3204 20.775 17.2875 22.5 13.5 22.5C9.71255 22.5 6.67974 20.775 4.47192 18.7219C2.27817 16.6875 0.810986 14.25 0.117236 12.5766C-0.0374512 12.2062 -0.0374512 11.7937 0.117236 11.4234C0.810986 9.75 2.27817 7.3125 4.47192 5.27812ZM13.5 15.75C15.5719 15.75 17.25 14.0719 17.25 12C17.25 9.92812 15.5719 8.25 13.5 8.25C13.4672 8.25 13.4391 8.25 13.4063 8.25C13.4672 8.48906 13.5 8.74219 13.5 9C13.5 10.6547 12.1547 12 10.5 12C10.2422 12 9.98911 11.9672 9.75005 11.9062C9.75005 11.9391 9.75005 11.9672 9.75005 12C9.75005 14.0719 11.4282 15.75 13.5 15.75ZM13.5 6C15.0913 6 16.6175 6.63214 17.7427 7.75736C18.8679 8.88258 19.5 10.4087 19.5 12C19.5 13.5913 18.8679 15.1174 17.7427 16.2426C16.6175 17.3679 15.0913 18 13.5 18C11.9088 18 10.3826 17.3679 9.25741 16.2426C8.13219 15.1174 7.50005 13.5913 7.50005 12C7.50005 10.4087 8.13219 8.88258 9.25741 7.75736C10.3826 6.63214 11.9088 6 13.5 6Z" fill="#81B29A" fill-opacity="0.41"/>
</g>
<defs>
<clipPath id="clip0_150_2">
<rect width="27" height="24" fill="white"/>
</clipPath>
</defs>
</svg>
