<svg width="39" height="39" viewBox="0 0 39 39" fill="none" xmlns="http://www.w3.org/2000/svg">
<path d="M24.375 4.0625C18.5561 4.0625 13.8125 8.80609 13.8125 14.625C13.8125 15.3419 13.961 16.009 14.0981 16.6785L4.41956 26.357C4.191 26.5856 4.06256 26.8955 4.0625 27.2187V33.7187C4.06253 34.042 4.19095 34.3519 4.4195 34.5805C4.64805 34.809 4.95803 34.9375 5.28125 34.9375H11.7812C12.1045 34.9375 12.4144 34.809 12.643 34.5805C12.8715 34.3519 13 34.042 13 33.7187V31.6875H15.8437C16.167 31.6875 16.4769 31.559 16.7055 31.3305C16.934 31.1019 17.0625 30.792 17.0625 30.4687V27.625H19.9062C20.2295 27.625 20.5394 27.4965 20.768 27.268C20.9965 27.0394 21.125 26.7295 21.125 26.4062V24.6146C22.1578 24.9514 23.234 25.1875 24.375 25.1875C30.1939 25.1875 34.9375 20.4439 34.9375 14.625C34.9375 8.80609 30.1939 4.0625 24.375 4.0625ZM24.375 6.5C28.8764 6.5 32.5 10.1235 32.5 14.625C32.5 19.1265 28.8764 22.75 24.375 22.75C22.9633 22.75 21.6443 22.393 20.4902 21.7629C20.3046 21.6616 20.0959 21.6104 19.8845 21.6142C19.673 21.618 19.4663 21.6767 19.2844 21.7846C19.1026 21.8925 18.9519 22.0458 18.8473 22.2296C18.7426 22.4133 18.6876 22.6211 18.6875 22.8325V25.1875H15.8437C15.5205 25.1875 15.2105 25.3159 14.982 25.5445C14.7534 25.773 14.625 26.083 14.625 26.4062V29.25H11.7812C11.458 29.25 11.148 29.3784 10.9195 29.607C10.6909 29.8355 10.5625 30.1455 10.5625 30.4687V32.5H6.5V27.7234L16.2405 17.9829C16.3932 17.8302 16.5026 17.6397 16.5576 17.4309C16.6125 17.222 16.6109 17.0024 16.5531 16.7943C16.3588 16.0949 16.25 15.3722 16.25 14.625C16.25 10.1235 19.8735 6.5 24.375 6.5ZM26 10.5625C25.3535 10.5625 24.7335 10.8193 24.2764 11.2764C23.8193 11.7335 23.5625 12.3535 23.5625 13C23.5625 13.6465 23.8193 14.2664 24.2764 14.7236C24.7335 15.1807 25.3535 15.4375 26 15.4375C26.6465 15.4375 27.2664 15.1807 27.7236 14.7236C28.1807 14.2664 28.4375 13.6465 28.4375 13C28.4375 12.3535 28.1807 11.7335 27.7236 11.2764C27.2664 10.8193 26.6465 10.5625 26 10.5625Z" fill="#81B29A" fill-opacity="0.41"/>
</svg>
